<svg xmlns="http://www.w3.org/2000/svg" xmlns:xlink="http://www.w3.org/1999/xlink" width="500" zoomAndPan="magnify" viewBox="0 0 375 374.999991" height="500" preserveAspectRatio="xMidYMid meet" version="1.2"><defs><clipPath id="7c3d81c594"><path d="M 123 85.503906 L 246 85.503906 L 246 238 L 123 238 Z M 123 85.503906 "/></clipPath></defs><g id="9ae8732d01"><path style=" stroke:none;fill-rule:nonzero;fill:#212121;fill-opacity:1;" d="M 55.777344 127.480469 C 55.777344 126.175781 55.867188 124.878906 56.035156 123.585938 C 56.207031 122.292969 56.460938 121.019531 56.800781 119.757812 C 57.136719 118.5 57.554688 117.269531 58.054688 116.066406 C 58.554688 114.859375 59.128906 113.695312 59.78125 112.566406 C 60.433594 111.4375 61.15625 110.355469 61.945312 109.320312 C 62.738281 108.285156 63.597656 107.308594 64.515625 106.382812 C 65.4375 105.460938 66.414062 104.601562 67.449219 103.808594 C 68.480469 103.011719 69.5625 102.289062 70.6875 101.636719 L 172.5625 42.824219 C 173.691406 42.175781 174.859375 41.601562 176.066406 41.101562 C 177.269531 40.605469 178.503906 40.1875 179.761719 39.851562 C 181.023438 39.511719 182.296875 39.261719 183.589844 39.089844 C 184.882812 38.921875 186.183594 38.835938 187.484375 38.835938 C 188.789062 38.835938 190.089844 38.921875 191.382812 39.089844 C 192.675781 39.261719 193.949219 39.511719 195.210938 39.851562 C 196.46875 40.1875 197.703125 40.605469 198.90625 41.101562 C 200.113281 41.601562 201.28125 42.175781 202.410156 42.824219 L 304.269531 101.636719 C 305.398438 102.289062 306.480469 103.011719 307.515625 103.804688 C 308.546875 104.601562 309.527344 105.457031 310.449219 106.382812 C 311.371094 107.304688 312.226562 108.28125 313.023438 109.316406 C 313.816406 110.351562 314.539062 111.433594 315.191406 112.5625 C 315.84375 113.691406 316.417969 114.855469 316.917969 116.0625 C 317.417969 117.265625 317.839844 118.496094 318.175781 119.757812 C 318.515625 121.015625 318.769531 122.292969 318.941406 123.585938 C 319.113281 124.878906 319.199219 126.175781 319.203125 127.480469 L 319.203125 245.105469 C 319.199219 246.410156 319.113281 247.707031 318.941406 249 C 318.769531 250.292969 318.515625 251.566406 318.175781 252.828125 C 317.835938 254.085938 317.417969 255.316406 316.917969 256.523438 C 316.417969 257.726562 315.84375 258.894531 315.191406 260.023438 C 314.539062 261.152344 313.8125 262.234375 313.019531 263.269531 C 312.226562 264.300781 311.367188 265.28125 310.449219 266.203125 C 309.527344 267.125 308.546875 267.984375 307.515625 268.777344 C 306.480469 269.574219 305.398438 270.296875 304.269531 270.949219 L 202.410156 329.765625 C 201.28125 330.417969 200.113281 330.988281 198.90625 331.488281 C 197.703125 331.984375 196.46875 332.402344 195.210938 332.738281 C 193.949219 333.074219 192.671875 333.328125 191.382812 333.496094 C 190.089844 333.667969 188.789062 333.753906 187.484375 333.753906 C 186.183594 333.753906 184.882812 333.667969 183.589844 333.496094 C 182.296875 333.328125 181.023438 333.074219 179.761719 332.738281 C 178.503906 332.402344 177.269531 331.984375 176.066406 331.488281 C 174.859375 330.988281 173.691406 330.417969 172.5625 329.765625 L 70.6875 270.949219 C 69.5625 270.296875 68.480469 269.574219 67.449219 268.777344 C 66.414062 267.980469 65.4375 267.125 64.519531 266.199219 C 63.597656 265.277344 62.742188 264.300781 61.949219 263.265625 C 61.15625 262.230469 60.433594 261.148438 59.78125 260.019531 C 59.128906 258.890625 58.554688 257.722656 58.054688 256.519531 C 57.558594 255.316406 57.140625 254.082031 56.800781 252.824219 C 56.464844 251.566406 56.207031 250.289062 56.039062 248.996094 C 55.867188 247.707031 55.777344 246.40625 55.777344 245.105469 Z M 55.777344 127.480469 "/><path style=" stroke:none;fill-rule:nonzero;fill:#ffffff;fill-opacity:1;" d="M 252.417969 214.996094 C 251.222656 199.148438 243.238281 186.558594 232.484375 175.542969 C 223.25 166.082031 213.828125 156.796875 204.230469 147.710938 C 199.546875 143.277344 195.507812 138.011719 189.519531 135.082031 C 189.300781 135.003906 189.082031 134.929688 188.863281 134.84375 C 188.351562 134.632812 187.835938 134.429688 187.324219 134.21875 C 182.449219 132.53125 178.359375 133.640625 174.78125 137.609375 C 171.355469 141.40625 170.675781 145.863281 173.023438 150.582031 C 175.863281 156.296875 180.6875 160.292969 185.335938 164.429688 C 195.546875 174.613281 205.921875 184.628906 215.914062 195.019531 C 227.175781 206.734375 230.007812 220.554688 224.441406 235.839844 C 219.542969 249.28125 209.679688 257.085938 195.765625 259.9375 C 195.539062 259.984375 195.320312 260.035156 195.097656 260.078125 C 194.316406 260.128906 193.53125 260.183594 192.75 260.234375 C 191.453125 260.214844 190.152344 260.167969 188.855469 260.183594 C 177.609375 260.277344 168.105469 256.421875 160.601562 247.867188 C 158.183594 245.109375 156.226562 242.046875 154.164062 239.042969 C 151.660156 235.410156 148.640625 232.382812 143.914062 231.996094 C 134.171875 231.203125 127.472656 240.980469 132.039062 250.214844 C 139.648438 265.605469 151.398438 276.894531 167.808594 282.730469 C 175.859375 285.589844 184.164062 286.96875 192.710938 285.066406 C 195.660156 285.238281 198.488281 284.507812 201.335938 283.917969 C 201.625 283.808594 201.90625 283.699219 202.195312 283.589844 C 203.246094 283.347656 204.300781 283.101562 205.351562 282.851562 L 205.660156 282.949219 C 205.660156 282.949219 205.863281 282.699219 205.863281 282.699219 C 207.328125 282.953125 208.121094 281.511719 209.332031 281.289062 C 220.882812 279.140625 229.546875 271.9375 236.953125 263.761719 C 249.34375 250.074219 253.796875 233.277344 252.417969 214.996094 Z M 187.335938 163.292969 C 187.546875 163.054688 187.703125 162.800781 187.816406 162.523438 C 187.703125 162.800781 187.546875 163.054688 187.335938 163.292969 Z M 187.335938 163.292969 "/><g clip-rule="nonzero" clip-path="url(#7c3d81c594)"><path style=" stroke:none;fill-rule:nonzero;fill:#ffffff;fill-opacity:1;" d="M 148.542969 201.4375 C 157.273438 210.332031 165.835938 219.421875 175.464844 227.378906 C 177.710938 229.535156 179.820312 231.855469 182.230469 233.804688 C 188.101562 238.558594 197.085938 238.671875 201.246094 234.222656 C 205.53125 229.644531 204.804688 221.769531 199.066406 215.945312 C 192.132812 208.914062 185.476562 201.59375 177.96875 195.152344 C 172.894531 188.90625 166.4375 184.039062 161.003906 178.132812 C 157.832031 174.675781 154.265625 171.257812 152.398438 167.160156 C 145.664062 152.351562 147.320312 138.148438 157.375 125.195312 C 158.996094 123.101562 160.535156 120.949219 162.828125 119.292969 C 169.015625 114.804688 175.941406 112.574219 183.359375 111.476562 C 194.460938 110.929688 204.453125 113.566406 212.789062 121.371094 C 217.09375 125.40625 219.820312 130.636719 223.667969 135.03125 C 227.304688 139.1875 231.933594 141.117188 236.691406 139.457031 C 242.046875 137.589844 245.265625 133.054688 245.125 127.644531 C 245.027344 124.019531 243.792969 120.742188 241.96875 117.710938 C 238.339844 111.675781 233.851562 106.46875 228.503906 101.742188 C 218.59375 92.96875 207.273438 88.011719 194.242188 86.632812 C 193.710938 86.566406 193.179688 86.503906 192.652344 86.433594 C 190.101562 85.597656 187.492188 85.996094 184.898438 86.074219 C 184.125 86.035156 183.347656 85.933594 182.578125 85.976562 C 156.234375 87.363281 132.183594 107 125.824219 132.554688 C 121.070312 151.640625 123.230469 169.636719 134.707031 186.128906 C 138.679688 191.851562 143.734375 196.53125 148.542969 201.4375 Z M 148.542969 201.4375 "/></g></g></svg>